<svg width="109" height="36" viewBox="0 0 109 36" fill="none" xmlns="http://www.w3.org/2000/svg">
<path fill-rule="evenodd" clip-rule="evenodd" d="M16.1894 0.0318549C10.1181 0.548608 4.63299 4.25183 1.88847 9.68706C0.601079 12.2366 -0.000674938 14.7375 5.68071e-07 17.5354C0.000491845 19.5107 0.184231 20.8583 0.690308 22.5986L0.873862 23.2296L0.721811 23.7601C0.445591 24.7235 0.369996 25.1967 0.33444 26.1857C0.295077 27.2795 0.385653 28.0617 0.662058 29.0138C0.802441 29.4973 1.28936 30.6463 1.3348 30.6011C1.345 30.5909 1.29931 30.3773 1.23329 30.1264C0.445651 27.1352 1.16144 24.4854 3.51042 21.6962C4.91922 20.0234 7.10012 18.2802 9.86012 16.6209C12.4514 15.063 16.4108 13.2352 20.0582 11.9132C20.6323 11.7051 21.1298 11.5076 21.1635 11.4744C21.2043 11.4343 20.9147 11.1184 20.3038 10.5364C19.6749 9.93721 19.4119 9.64916 19.4748 9.62825C19.5254 9.61138 20.5617 9.45708 21.7776 9.28542C22.9935 9.11376 24.07 8.9528 24.1698 8.92773C24.3368 8.88586 24.4385 8.70753 25.4471 6.689C26.0775 5.42729 26.5656 4.51922 26.5963 4.55089C26.6256 4.58115 27.1335 5.57217 27.725 6.75319C28.7761 8.85193 28.805 8.90139 29.0043 8.93782C29.6402 9.05422 33.4969 9.58802 33.5219 9.56308C33.5687 9.51644 33.079 8.64512 32.591 7.90706C31.9193 6.89098 31.2149 6.04222 30.2573 5.09497C28.868 3.72071 27.3927 2.67816 25.585 1.79333C23.0151 0.535342 20.5467 -0.0232256 17.6632 0.00073835C16.9877 0.00636254 16.3245 0.020362 16.1894 0.0318549Z" fill="white"/>
<path fill-rule="evenodd" clip-rule="evenodd" d="M33.1077 10.274C32.8206 10.5487 32.0411 11.3039 31.3755 11.9522L30.1653 13.131L30.5871 15.5625C30.8191 16.8997 31.0027 18.0003 30.9951 18.008C30.983 18.0202 29.7886 17.4032 27.3362 16.1179C26.6896 15.779 26.6154 15.7539 26.4432 15.8159C26.3399 15.8531 25.3337 16.3659 24.2072 16.9554C23.0807 17.5448 22.1524 18.0197 22.1444 18.0105C22.1363 18.0014 22.2454 17.3268 22.3868 16.5114C22.5282 15.6961 22.6266 15.029 22.6054 15.029C22.547 15.029 19.5744 16.0309 19.0142 16.2394C15.4022 17.5839 12.2947 19.058 10.0484 20.4924C7.07407 22.3917 5.02029 24.4393 3.93923 26.583C2.52386 29.3896 2.794 32.4876 4.70323 35.3438C5.18861 36.07 5.37039 36.2195 5.08901 35.6612C4.51556 34.5231 4.23541 33.3339 4.23609 32.0405C4.23658 31.0573 4.34361 30.5091 4.71508 29.5882C6.4176 25.3667 10.9539 22.2515 17.3188 20.9326C17.9062 20.8109 18.3995 20.7239 18.415 20.7394C18.4305 20.7548 18.323 20.7976 18.176 20.8345C17.6606 20.9641 16.0602 21.5228 15.4217 21.796C13.8706 22.46 12.3127 23.3376 11.0479 24.26C10.352 24.7675 8.7508 26.311 8.21875 26.9872C7.35465 28.0853 6.68449 29.2992 6.23872 30.5732L6.09391 30.9871L6.50517 31.327C7.52377 32.1687 8.52371 32.8079 9.86532 33.475C14.3716 35.7157 19.6883 35.923 24.4182 34.0425C25.813 33.4879 27.6806 32.3956 28.9011 31.4205C29.5013 30.941 30.5617 29.9232 31.1703 29.2423C32.3651 27.9057 33.5846 25.9288 34.2626 24.2294C35.7896 20.4018 35.9455 16.3804 34.7235 12.3391C34.4801 11.5343 33.755 9.76974 33.669 9.77311C33.6474 9.77396 33.3948 9.99942 33.1077 10.274Z" fill="white"/>
<path d="M55.656 16.6331H52.4527C52.41 16.3042 52.3224 16.0074 52.19 15.7426C52.0576 15.4778 51.8825 15.2514 51.6647 15.0635C51.4469 14.8756 51.1885 14.7325 50.8895 14.6343C50.5948 14.5318 50.2681 14.4805 49.9093 14.4805C49.2729 14.4805 48.7241 14.6364 48.2628 14.9482C47.8058 15.26 47.4535 15.7105 47.2058 16.2999C46.9623 16.8893 46.8406 17.6026 46.8406 18.4397C46.8406 19.311 46.9645 20.0414 47.2122 20.6308C47.4642 21.2159 47.8165 21.6579 48.2692 21.9569C48.7262 22.2516 49.2665 22.399 49.8901 22.399C50.2403 22.399 50.5585 22.3541 50.8447 22.2644C51.1351 22.1747 51.3892 22.0445 51.607 21.8736C51.8291 21.6985 52.0107 21.4871 52.1516 21.2394C52.2968 20.9874 52.3972 20.7034 52.4527 20.3873L55.656 20.4065C55.6004 20.9874 55.4317 21.5597 55.1498 22.1235C54.8722 22.6872 54.49 23.2019 54.0031 23.6674C53.5162 24.1287 52.9225 24.496 52.2221 24.7694C51.5259 25.0427 50.7272 25.1794 49.826 25.1794C48.6387 25.1794 47.5752 24.9189 46.6356 24.3978C45.7002 23.8725 44.9613 23.1079 44.4189 22.1043C43.8765 21.1006 43.6053 19.8791 43.6053 18.4397C43.6053 16.9961 43.8808 15.7725 44.4317 14.7688C44.9827 13.7651 45.728 13.0027 46.6676 12.4817C47.6072 11.9606 48.66 11.7001 49.826 11.7001C50.6204 11.7001 51.3551 11.8111 52.0299 12.0332C52.7047 12.251 53.2984 12.5714 53.8109 12.9942C54.3234 13.4127 54.7398 13.9274 55.0602 14.5382C55.3805 15.1489 55.5791 15.8472 55.656 16.6331ZM57.4706 25V15.1596H60.5137V16.9534H60.6162C60.7956 16.3042 61.0882 15.8216 61.4939 15.5055C61.8996 15.1852 62.3716 15.0251 62.9097 15.0251C63.055 15.0251 63.2044 15.0357 63.3582 15.0571C63.512 15.0742 63.655 15.1019 63.7874 15.1404V17.8631C63.6379 17.8119 63.4415 17.7713 63.198 17.7414C62.9589 17.7115 62.7453 17.6966 62.5574 17.6966C62.1858 17.6966 61.8505 17.7799 61.5516 17.9464C61.2569 18.1087 61.0241 18.3372 60.8532 18.6319C60.6867 18.9224 60.6034 19.264 60.6034 19.657V25H57.4706ZM65.0639 25V15.1596H68.1967V25H65.0639ZM66.6335 14.0128C66.1936 14.0128 65.8156 13.8676 65.4996 13.5772C65.1835 13.2825 65.0255 12.928 65.0255 12.5137C65.0255 12.1037 65.1835 11.7535 65.4996 11.463C65.8156 11.1683 66.1936 11.021 66.6335 11.021C67.0777 11.021 67.4557 11.1683 67.7675 11.463C68.0835 11.7535 68.2416 12.1037 68.2416 12.5137C68.2416 12.928 68.0835 13.2825 67.7675 13.5772C67.4557 13.8676 67.0777 14.0128 66.6335 14.0128ZM74.7842 25.1858C73.7464 25.1858 72.8559 24.9722 72.1127 24.5451C71.3738 24.118 70.8058 23.5244 70.4086 22.7641C70.0114 21.9996 69.8128 21.1155 69.8128 20.1118C69.8128 19.1039 70.0114 18.2198 70.4086 17.4595C70.81 16.695 71.3802 16.0992 72.1191 15.6721C72.8623 15.245 73.7485 15.0315 74.7778 15.0315C75.6875 15.0315 76.4798 15.1959 77.1546 15.5248C77.8337 15.8536 78.3633 16.3192 78.7434 16.9214C79.1278 17.5193 79.3307 18.2219 79.3521 19.0291H76.4243C76.3645 18.5251 76.1937 18.1301 75.9118 17.8439C75.6342 17.5578 75.2711 17.4147 74.8227 17.4147C74.4596 17.4147 74.1414 17.5172 73.8681 17.7222C73.5947 17.9229 73.3812 18.2219 73.2274 18.6191C73.078 19.012 73.0032 19.4989 73.0032 20.0798C73.0032 20.6607 73.078 21.1518 73.2274 21.5533C73.3812 21.9505 73.5947 22.2516 73.8681 22.4566C74.1414 22.6574 74.4596 22.7577 74.8227 22.7577C75.1131 22.7577 75.3693 22.6958 75.5914 22.5719C75.8178 22.4481 76.0036 22.2666 76.1488 22.0274C76.294 21.7839 76.3858 21.4892 76.4243 21.1433H79.3521C79.3222 21.9548 79.1193 22.6638 78.7434 23.2702C78.3719 23.8767 77.8487 24.3487 77.1739 24.6861C76.5033 25.0192 75.7068 25.1858 74.7842 25.1858ZM83.7806 22.4182L83.7934 18.6832H84.229L86.9966 15.1596H90.5459L86.4329 20.2079H85.6064L83.7806 22.4182ZM80.9553 25V11.8795H84.0881V25H80.9553ZM87.0671 25L84.4917 20.9126L86.5546 18.6896L90.6868 25H87.0671ZM95.8617 25.1858C94.8323 25.1858 93.944 24.9829 93.1966 24.5772C92.4534 24.1672 91.8811 23.5842 91.4796 22.8282C91.0824 22.068 90.8838 21.1646 90.8838 20.1182C90.8838 19.1017 91.0845 18.2134 91.486 17.4531C91.8875 16.6886 92.4534 16.0949 93.1837 15.6721C93.9141 15.245 94.7747 15.0315 95.7656 15.0315C96.466 15.0315 97.1067 15.1404 97.6875 15.3582C98.2684 15.576 98.7702 15.8985 99.1931 16.3256C99.6159 16.7527 99.9447 17.2801 100.18 17.908C100.415 18.5316 100.532 19.2469 100.532 20.0542V20.8358H91.9793V19.0163H97.617C97.6128 18.6832 97.5338 18.3863 97.38 18.1258C97.2263 17.8653 97.0148 17.6624 96.7458 17.5172C96.481 17.3677 96.1756 17.293 95.8296 17.293C95.4794 17.293 95.1655 17.372 94.8879 17.53C94.6103 17.6838 94.3903 17.8952 94.228 18.1642C94.0657 18.429 93.9803 18.7302 93.9717 19.0676V20.919C93.9717 21.3205 94.0508 21.6729 94.2088 21.9761C94.3668 22.2751 94.591 22.5079 94.8815 22.6744C95.1719 22.841 95.5178 22.9243 95.9193 22.9243C96.1969 22.9243 96.4489 22.8858 96.6753 22.809C96.9017 22.7321 97.096 22.6189 97.2583 22.4694C97.4206 22.3199 97.5423 22.1363 97.6235 21.9185L100.5 22.0017C100.38 22.6467 100.118 23.2083 99.712 23.6867C99.3105 24.1607 98.783 24.5302 98.1296 24.795C97.4761 25.0555 96.7201 25.1858 95.8617 25.1858ZM107.686 15.1596V17.4659H101.479V15.1596H107.686ZM102.779 12.802H105.912V21.9057C105.912 22.0978 105.942 22.2537 106.002 22.3733C106.066 22.4886 106.157 22.5719 106.277 22.6232C106.397 22.6702 106.54 22.6937 106.706 22.6937C106.826 22.6937 106.952 22.683 107.084 22.6616C107.221 22.636 107.323 22.6146 107.392 22.5976L107.866 24.8591C107.716 24.9018 107.505 24.9552 107.232 25.0192C106.963 25.0833 106.64 25.1239 106.264 25.1409C105.53 25.1751 104.9 25.0897 104.374 24.8847C103.853 24.6754 103.454 24.3508 103.176 23.9109C102.903 23.471 102.771 22.9179 102.779 22.2516V12.802Z" fill="white"/>
</svg>
