<svg width="26" height="26" viewBox="0 0 26 26" fill="none" xmlns="http://www.w3.org/2000/svg">
<path d="M12.9998 1.52588e-05V26C20.1798 26 26 20.1797 26 13.0002C26 5.81986 20.1797 1.52588e-05 12.9998 1.52588e-05Z" fill="#252F6B"/>
<path d="M12.9998 0C5.82029 0 0 5.82007 0 13C0 20.1795 5.82029 25.9998 12.9998 25.9998C20.1797 25.9998 20.1797 0 12.9998 0Z" fill="#273375"/>
<path d="M8.91547 19.9281L9.79212 18.8352L8.43782 19.0805L7.96797 17.7687L7.45727 19.0805L6.0746 18.8352L6.95333 19.9041L6.04095 20.9717L7.43159 20.7533L7.90062 22.038L8.41153 20.7539L9.82988 21.0073L8.91547 19.9281ZM19.2776 20.8934L19.7747 20.2741L19.0071 20.4131L18.7408 19.6698L18.4514 20.4131L17.6679 20.2741L18.1659 20.8794L17.649 21.4848L18.4369 21.3608L18.7026 22.0885L18.9921 21.3612L19.7959 21.5049L19.2776 20.8934ZM19.2776 7.20911L19.7747 6.58962L19.0071 6.72877L18.7408 5.9855L18.4514 6.72877L17.6679 6.58962L18.1659 7.19533L17.649 7.80027L18.4369 7.67649L18.7026 8.40455L18.9921 7.67688L19.7959 7.82036L19.2776 7.20911ZM22.4937 10.7491L22.9904 10.1296L22.2232 10.2688L21.9569 9.52551L21.6675 10.2688L20.8836 10.1296L21.3815 10.7353L20.8647 11.3404L21.6525 11.2164L21.9183 11.9446L22.2077 11.2169L23.0115 11.3604L22.4937 10.7491ZM16.4956 12.3229L16.9928 11.7035L16.2251 11.8427L15.9589 11.0995L15.6695 11.8427L14.8862 11.7035L15.384 12.3089L14.8673 12.9142L15.6551 12.7904L15.9209 13.5179L16.2103 12.7908L17.0142 12.9343L16.4956 12.3229Z" fill="#F3F4F5"/>
<path d="M2.73021 5.0341C2.5258 5.29703 2.33136 5.56755 2.14729 5.8451H3.54083L2.73021 5.0341ZM9.44339 13H10.6957L9.44339 11.7477V13ZM5.2923 2.53234C4.99403 2.75239 4.7069 2.98578 4.42878 3.22982L5.2923 4.09296V2.53234ZM4.03961 13H5.2923V11.7473L4.03961 13ZM12.9998 0C11.7662 0 10.5744 0.175482 9.44339 0.496752V4.09296L13.0002 0.536327V0H12.9998ZM13.0002 11.8015V9.99657H11.1953L13.0002 11.8015ZM0.536382 13L3.54039 9.99657H0.352831C0.12438 10.9611 0 11.9658 0 13H0.536382ZM11.1941 5.8451H13.0002V4.03939L11.1941 5.8451Z" fill="#29337A"/>
<path d="M13.0001 12.1806V11.8015L11.1953 9.99657H13.0001V9.35019H10.1698L13.0001 12.1806ZM3.54078 5.8451H2.14724C2.0082 6.05646 1.87533 6.27181 1.74879 6.49088H4.48642L2.86152 4.86642C2.81716 4.92184 2.7733 4.97767 2.72995 5.03389L3.54078 5.8451ZM5.29225 11.7473V13H5.93825V10.8016L3.74008 13H4.03956L5.29225 11.7473ZM9.44335 0.496536C9.22639 0.558156 9.01106 0.625363 8.79757 0.698091V5.03861L13.0001 0.836249V0.53677L9.44335 4.09275V0.496536ZM5.26948 9.99657L5.29225 9.97379L5.91564 9.35041H0.523161C0.460763 9.56428 0.403951 9.77974 0.352783 9.99657H3.54034L0.536334 13H2.26591L5.26948 9.99657ZM13.0001 6.4911V5.8451H11.1941L13.0001 4.03939V2.31026L8.81914 6.4911H13.0001Z" fill="white"/>
<path d="M5.29228 4.09305L4.42876 3.22991C4.12229 3.49904 3.82863 3.78242 3.54877 4.07911L5.29228 5.82263L5.31078 5.84151L5.93828 6.46901V2.08722C5.71867 2.22988 5.50251 2.37704 5.2925 2.53221V4.09305H5.29228ZM9.44337 11.7475L10.6957 12.9998H12.3456L8.79738 9.45188V12.9998H9.44337V11.7475Z" fill="white"/>
<path d="M10.8156 9.99663L10.1698 9.35047H13.0002V6.49115H8.81917L8.7976 6.51311V6.49115H8.81917L13.0002 2.31053V0.836302L8.79738 5.03888V0.698364C7.79085 1.04228 6.83052 1.50886 5.93806 2.08757V6.46914L5.96046 6.4911H5.93806V6.46914L5.31056 5.8417L5.31424 5.84537H5.29229V5.82298L3.54877 4.07946C3.30935 4.33271 3.08009 4.59538 2.86155 4.86685L4.4864 6.49132H1.74883C1.22646 7.3915 0.81492 8.35158 0.523193 9.35063H5.91567L5.93806 9.32785V9.35063H5.91567L5.29229 9.97407V9.99685H5.26951L2.26589 13.0001H3.74012L5.93828 10.8017V13.0001H8.7976V9.45207L12.3456 13.0001H12.8335C12.8891 12.942 12.9458 12.8843 13.0004 12.8246V12.1806L10.8156 9.99663Z" fill="#D32030"/>
<path d="M5.29231 9.99663V9.97363L5.26953 9.99663H5.29231ZM5.93831 9.32747L5.91575 9.35025H5.93831V9.32747ZM8.7974 6.51311L8.81919 6.49115H8.7974V6.51311ZM5.29231 5.84515H5.31449L5.31081 5.8417L5.29231 5.82281V5.84515ZM5.96065 6.49115L5.93831 6.46898V6.49115H5.96065Z" fill="#D32030"/>
</svg>
