<svg width="26" height="26" viewBox="0 0 26 26" fill="none" xmlns="http://www.w3.org/2000/svg">
<path d="M5.07813e-05 2.26096H0V23.7391H5.07813e-05V13.0001V2.26096Z" fill="#FF9811"/>
<path d="M12.9999 25.9999C20.1796 25.9999 25.9999 20.1796 25.9999 12.9999C25.9999 5.82028 20.1796 0 12.9999 0C5.82028 0 0 5.82028 0 12.9999C0 20.1796 5.82028 25.9999 12.9999 25.9999Z" fill="#FFDA44"/>
<path d="M10.1739 2.26096H5.67295C5.47374 2.39726 5.27835 2.53904 5.08698 2.68615L3.95654 13L5.08698 23.3139C5.27832 23.461 5.47372 23.6028 5.67295 23.7391H10.1739V2.26096Z" fill="#FF9811"/>
<path d="M6.10352e-05 13.0001C6.10352e-05 17.2019 1.99414 20.9375 5.08702 23.3139V2.68613C1.99414 5.06259 6.10352e-05 8.79816 6.10352e-05 13.0001Z" fill="#6DA544"/>
<path d="M20.9131 7.92517V8.25042L20.9252 8.25225L20.9131 7.92517Z" fill="#FFDA44"/>
<path d="M24.9638 16.3913H22.5145L21.4783 17.5218V19.7827H19.2174V18.6522H20.3479V16.3913H15.2609V17.8044H14.1305V15.1114C13.7836 14.8009 13.5653 14.3499 13.5653 13.8479V6.50007C13.5653 5.56362 14.3244 4.80444 15.2609 4.80444V15.261H17.5218L18.2975 14.6145C18.1581 14.2823 18.0866 13.9256 18.087 13.5653V11.8697H16.3913V8.47841H19.7826C19.7826 7.91321 20.6305 7.34797 20.6305 7.34797C20.6305 7.34797 21.4783 7.91316 21.4783 8.47841V11.8697C22.1071 11.8772 23.1062 11.8609 24.1856 11.8697C23.902 11.3741 23.7391 10.786 23.7391 10.1741C23.7391 9.1767 24.1698 8.28001 24.8552 7.65946C23.8672 5.47003 22.2907 3.60321 20.3271 2.26096H11.8696V23.7392H20.3271C22.7148 22.107 24.5302 19.6994 25.411 16.8792L24.9638 16.3913Z" fill="#A2001D"/>
</svg>
